<svg width="183" height="66" viewBox="0 0 183 66" fill="none" xmlns="http://www.w3.org/2000/svg">
<g clip-path="url(#clip0)">
<path d="M13.7118 0.695801C18.9153 0.695801 22.6142 3.64158 22.6142 8.8464C22.6142 12.488 20.4647 14.747 17.545 15.5693V16.0934C20.4647 16.9157 22.6142 19.1747 22.6142 22.8615C22.6142 27.8946 18.8705 31.0572 13.7118 31.0572H0V0.695801H13.7118ZM5.67817 13.2289H13.1565C15.5657 13.2289 17.1957 12.0181 17.1957 9.54219C17.1957 7.06628 15.5657 5.90062 13.1565 5.90062H5.67817V13.2289ZM5.67817 25.8524H13.1565C15.5657 25.8524 17.1957 24.6416 17.1957 22.1657C17.1957 19.6898 15.5657 18.4338 13.1565 18.4338H5.67817V25.8524Z" fill="white"/>
<path d="M0.429874 34.4277C0.385093 34.4277 0.340313 34.4367 0.295532 34.4367V39.5602C0.340313 39.5602 0.385093 39.5512 0.429874 39.5512C4.63924 39.5512 7.13799 42.4608 7.13799 46.753V53.6928C7.13799 57.9036 5.11391 60.8946 0.429874 60.8946C0.385093 60.8946 0.340313 60.8855 0.295532 60.8855V66C0.340313 66 0.385093 66.009 0.429874 66.009C8.12316 66.009 12.8162 61.4096 12.8162 53.4307V47.0151C12.8162 39.244 8.12316 34.4277 0.429874 34.4277Z" fill="white"/>
<path d="M33.8362 54.8946C33.8362 58.5813 31.6419 60.8765 27.7281 60.8765C23.8143 60.8765 21.6201 58.5813 21.6201 54.8946V35.0331H15.9419V54.6416C15.9419 61.5813 20.196 66.0091 27.7192 66.0091C35.2423 66.0091 39.4964 61.5813 39.4964 54.6416V35.0331H33.8183V54.8946H33.8362Z" fill="white"/>
<path d="M61.7792 60.0181H61.2598L54.3815 35.0331H44.3238V65.3946H49.993V40.4097H50.5125L57.3907 65.3946H67.4484V35.0331H61.7792V60.0181Z" fill="white"/>
<path d="M82.7544 35.0331H72.437V65.3946H82.7544C90.8328 65.3946 95.1407 61.3645 95.1407 53.0783V47.3494C95.1317 39.0633 90.8328 35.0331 82.7544 35.0331ZM89.4625 53.25C89.4625 57.6777 87.6981 60.1898 82.8439 60.1898H78.1151V40.238H82.8439C87.6981 40.238 89.4625 42.75 89.4625 47.1777V53.25Z" fill="white"/>
<path d="M104.589 35.0331H98.9202V65.3946H118.525V60.1898H104.589V35.0331Z" fill="white"/>
<path d="M127.203 52.6898H140.1V47.485H127.203V40.238H141.309V35.0331H121.525V65.3946H141.56V60.1898H127.203V52.6898Z" fill="white"/>
<path d="M157.341 47.3494L156.956 47.259C153.346 46.4367 150.677 45.9126 150.677 43.0482C150.677 40.9699 152.522 39.4518 155.532 39.4518C158.971 39.4518 161.165 40.9699 161.165 44.4398V45.3524H166.664V44.0512C166.664 37.9789 161.98 34.4187 155.532 34.4187C149.683 34.4187 145.089 37.7982 145.089 43.2199C145.089 48.7319 148.788 50.9006 155.021 52.2831L155.406 52.3735C159.365 53.241 161.595 54.1084 161.595 56.756C161.595 59.0151 159.875 60.9669 156.221 60.9669C151.663 60.9669 149.558 58.4548 149.558 54.7229V53.9458H143.969V54.9036C143.969 62.0151 148.698 66.009 156.051 66.009C162.455 66.009 167.184 62.5843 167.184 56.4669C167.184 50.9548 163.529 48.741 157.341 47.3494Z" fill="white"/>
<path d="M182.919 47.2681C179.31 46.4458 176.641 45.9217 176.641 43.0572C176.641 40.9789 178.486 39.4608 181.495 39.4608C182.024 39.4608 182.525 39.506 182.991 39.5783V34.509C182.499 34.4638 182.006 34.4367 181.495 34.4367C175.647 34.4367 171.044 37.8163 171.044 43.2379C171.044 48.75 174.743 50.9187 180.976 52.3012L181.361 52.3916C181.943 52.5181 182.481 52.6446 182.991 52.7801V47.2861L182.919 47.2681Z" fill="white"/>
<path d="M182.185 60.9669C177.626 60.9669 175.522 58.4548 175.522 54.7229V53.9458H169.933V54.9036C169.933 62.0151 174.662 66.009 182.015 66.009C182.346 66.009 182.678 65.991 183 65.9729V60.9217C182.731 60.9397 182.472 60.9669 182.185 60.9669Z" fill="white"/>
<path d="M38.6456 26.5482C34.4363 26.5482 31.9375 23.6386 31.9375 19.3464V12.4066C31.9375 8.19578 33.9616 5.20482 38.6456 5.20482H182.991V0L38.6456 0.0903614C30.9523 0.0903614 26.2593 4.68976 26.2593 12.6687V19.0843C26.2593 26.8464 30.9434 31.6627 38.6456 31.6627H182.991V26.2139L38.6456 26.5482Z" fill="white"/>
</g>
<defs>
<clipPath id="clip0">
<rect width="183" height="66" fill="white"/>
</clipPath>
</defs>
</svg>
