<svg width="1728" height="900" viewBox="0 0 1728 900" fill="none" xmlns="http://www.w3.org/2000/svg">
<path d="M501.421 659.411L501.89 660.621L502.354 659.409L719.348 91.8932L922.308 91.8932V114.456L891.027 116.472L891.025 116.473C868.934 118.012 851.397 124.432 839.379 135.922C827.353 147.419 820.918 163.932 820.918 185.521L820.918 712.433C820.918 734.021 827.353 750.786 839.245 762.538C851.132 774.284 868.414 780.964 890 782.504L890.004 782.505L922.308 784.521V807.084H605.825V784.521L638.128 782.505L638.132 782.504C660.223 780.965 677.762 774.544 689.78 762.925C701.806 751.299 708.239 734.53 708.239 712.433L708.239 211.099L707.275 210.913L472.873 795.829H438.728L183.843 161.803L182.879 161.989L182.879 692.993C182.879 742.315 215.81 780.443 258.117 782.505L258.121 782.505L307.824 784.532V807.084H40.5L40.5 784.525L76.8928 782.505C120.233 780.443 152.131 741.283 152.131 692.993L152.131 185.521C152.131 163.932 145.696 147.42 133.8 135.923C121.912 124.434 104.63 118.013 83.0494 116.473L83.045 116.472L50.7414 114.455L50.7414 91.8932L281.354 91.8932L501.421 659.411ZM987.989 447.442C987.989 230.785 1136.29 74.5 1336.72 74.5C1536.12 74.5 1687.5 233.852 1687.5 452.558C1687.5 669.214 1538.17 825.5 1338.77 825.5C1138.35 825.5 987.989 666.149 987.989 447.442ZM1558.43 497.576C1558.43 389.562 1532.3 288.947 1488.47 215.32C1444.63 141.699 1383.05 94.9857 1312.14 94.9857C1254.07 94.9857 1205.54 125.797 1171.54 179.755C1137.55 233.701 1118.08 310.792 1118.08 403.448C1118.08 510.949 1143.95 611.308 1187.66 684.808C1231.37 758.302 1292.95 805.014 1364.37 805.014C1422.44 805.014 1470.98 773.945 1504.97 719.989C1538.96 666.044 1558.43 589.209 1558.43 497.576Z" stroke="#24211F"/>
</svg>
