<svg width="48" height="48" viewBox="0 0 48 48" fill="none" xmlns="http://www.w3.org/2000/svg">
<g clip-path="url(#clip0_713_9176)">
<path d="M45.958 12.6686C46.0513 13.0079 45.9891 13.3317 45.7716 13.6401C45.5542 13.9486 45.2588 14.1336 44.8859 14.1953C39.5718 14.9355 36.8836 17.403 36.8215 21.5976H41.6228C41.9646 21.5976 42.2599 21.721 42.5085 21.9677C42.7571 22.2145 42.8814 22.5075 42.8814 22.8467V40.7046C42.8814 41.0747 42.7571 41.3834 42.5085 41.6299C42.2599 41.8768 41.9646 42 41.6228 42H26.5662C26.2243 42 25.9211 41.8766 25.6569 41.6299C25.3928 41.3832 25.2607 41.0747 25.2607 40.7046V25.2526C25.2607 19.1457 26.7679 14.4882 29.7824 11.2807C32.7968 8.07308 37.3342 6.31504 43.394 6.00661C43.7048 5.97577 43.9844 6.05287 44.2331 6.23793C44.4819 6.42299 44.6373 6.66973 44.6992 6.97816L45.958 12.6686ZM22.6971 12.6686C22.7903 13.0079 22.7282 13.3317 22.5106 13.6401C22.262 13.9794 21.9668 14.1645 21.625 14.1953C16.3108 14.9355 13.6227 17.403 13.5605 21.5976H18.3619C18.7037 21.5976 18.999 21.721 19.2476 21.9677C19.4962 22.2145 19.6205 22.5075 19.6205 22.8467V40.7046C19.6205 41.0747 19.4962 41.3834 19.2476 41.6299C18.999 41.8768 18.7037 42 18.3619 42H3.30522C2.96338 42 2.66038 41.8766 2.39623 41.6299C2.13208 41.3831 2 41.0747 2 40.7046V25.2526C2 19.1457 3.50722 14.4882 6.52167 11.2807C9.53611 8.07308 14.0733 6.31504 20.1333 6.00661C20.444 5.97577 20.7237 6.05287 20.9723 6.23793C21.221 6.42299 21.3763 6.66973 21.4385 6.97816L22.6971 12.6686Z" stroke="#D0FECF" stroke-width="2" stroke-linejoin="round"/>
</g>
<defs>
<clipPath id="clip0_713_9176">
<rect width="48" height="48" fill="white"/>
</clipPath>
</defs>
</svg>
