<svg width="127" height="24" viewBox="0 0 127 24" fill="none" xmlns="http://www.w3.org/2000/svg">
<path d="M19.0428 15.8984C18.861 18.4118 17.9305 20.3904 16.2513 21.8342C14.5829 23.2781 12.3797 24 9.64171 24C6.64706 24 4.28877 22.9947 2.56684 20.984C0.855615 18.9626 0 16.1925 0 12.6738V11.246C0 9 0.395722 7.02139 1.18717 5.31016C1.97861 3.59893 3.10695 2.28877 4.57219 1.37968C6.04813 0.459893 7.75936 0 9.70588 0C12.4011 0 14.5722 0.721925 16.2193 2.16578C17.8663 3.60963 18.8182 5.63636 19.0749 8.24599H14.262C14.1444 6.73797 13.7219 5.64706 12.9947 4.97326C12.2781 4.28877 11.1818 3.94652 9.70588 3.94652C8.1016 3.94652 6.8984 4.52406 6.09626 5.67914C5.30481 6.82353 4.8984 8.60428 4.87701 11.0214V12.7861C4.87701 15.3102 5.25668 17.1551 6.01604 18.3209C6.7861 19.4866 7.99465 20.0695 9.64171 20.0695C11.1283 20.0695 12.2353 19.7326 12.9626 19.0588C13.7005 18.3743 14.123 17.3209 14.2299 15.8984H19.0428Z" fill="white"/>
<path d="M31.0196 8.24599L25.3476 23.6791H20.2299L28.9251 0.320856H33.385L42.1283 23.6791H37.0107L31.0196 8.24599Z" fill="white"/>
<path d="M63.3048 23.6791H58.492L49.123 8.31016V23.6791H44.3102V0.320856H49.123L58.508 15.7219V0.320856H63.3048V23.6791Z" fill="white"/>
<path d="M76.139 17.8877L81.4332 0.320856H86.7914L78.6578 23.6791H73.6364L65.5348 0.320856H70.877L76.139 17.8877Z" fill="white"/>
<path d="M102.594 23.6791L96.7308 7.21925L90.9305 23.6791H85.8128L94.508 0.320856H98.9679L107.711 23.6791H102.594Z" fill="white"/>
<path d="M122.005 17.5508C122.005 16.6417 121.684 15.9465 121.043 15.4652C120.401 14.9733 119.246 14.4599 117.578 13.9251C115.909 13.3797 114.588 12.8449 113.615 12.3209C110.963 10.8877 109.636 8.95722 109.636 6.52941C109.636 5.26738 109.989 4.14438 110.695 3.16043C111.412 2.16578 112.433 1.39037 113.759 0.834225C115.096 0.278075 116.594 0 118.251 0C119.92 0 121.406 0.304813 122.711 0.914438C124.016 1.51337 125.027 2.36364 125.743 3.46524C126.471 4.56684 126.834 5.81818 126.834 7.21925H122.021C122.021 6.14973 121.684 5.32086 121.011 4.73262C120.337 4.13369 119.39 3.83422 118.171 3.83422C116.995 3.83422 116.08 4.08556 115.428 4.58824C114.775 5.08021 114.449 5.73262 114.449 6.54545C114.449 7.30481 114.829 7.94118 115.588 8.45455C116.358 8.96791 117.487 9.4492 118.973 9.8984C121.711 10.7219 123.706 11.7433 124.957 12.9626C126.209 14.1818 126.834 15.7005 126.834 17.5187C126.834 19.5401 126.07 21.1283 124.54 22.2834C123.011 23.4278 120.952 24 118.364 24C116.567 24 114.93 23.6738 113.455 23.0214C111.979 22.3583 110.85 21.4545 110.07 20.3102C109.299 19.1658 108.914 17.8396 108.914 16.3316H113.743C113.743 18.9091 115.283 20.1979 118.364 20.1979C119.508 20.1979 120.401 19.9679 121.043 19.508C121.684 19.0374 122.005 18.385 122.005 17.5508Z" fill="white"/>
</svg>
