<svg width="201" height="40" viewBox="0 0 201 40" fill="none" xmlns="http://www.w3.org/2000/svg">
<path d="M30.1511 26.1725C29.8632 30.152 28.3899 33.2848 25.7313 35.5709C23.0896 37.857 19.6012 39 15.266 39C10.5245 39 6.79055 37.4082 4.06417 34.2246C1.35472 31.0241 0 26.6381 0 21.0668V18.8062C0 15.25 0.62656 12.1172 1.87968 9.40775C3.1328 6.69831 4.91934 4.62389 7.2393 3.18449C9.5762 1.72816 12.2857 1 15.3676 1C19.635 1 23.0726 2.14305 25.6805 4.42914C28.2883 6.71524 29.7955 9.92424 30.2019 14.0562H22.5815C22.3953 11.6684 21.7264 9.94118 20.5749 8.87433C19.4403 7.79055 17.7045 7.24866 15.3676 7.24866C12.8275 7.24866 10.9225 8.1631 9.65241 9.99198C8.39929 11.8039 7.75579 14.6234 7.72192 18.4505V21.2447C7.72192 25.2411 8.32308 28.1622 9.5254 30.008C10.7447 31.8538 12.6582 32.7767 15.266 32.7767C17.6199 32.7767 19.3725 32.2433 20.5241 31.1765C21.6925 30.0927 22.3614 28.4247 22.5307 26.1725H30.1511Z" fill="#C8090A"/>
<path d="M49.1144 14.0562L40.1337 38.492H32.0307L45.7981 1.50802H52.8596L66.7032 38.492H58.6003L49.1144 14.0562Z" fill="#C8090A"/>
<path d="M100.233 38.492H92.6123L77.7781 14.1578V38.492H70.1578V1.50802H77.7781L92.6377 25.893V1.50802H100.233V38.492Z" fill="#C8090A"/>
<path d="M120.553 29.3222L128.936 1.50802H137.42L124.541 38.492H116.591L103.763 1.50802H112.222L120.553 29.3222Z" fill="#C8090A"/>
<path d="M162.44 38.492L153.157 12.4305L143.973 38.492H135.87L149.638 1.50802H156.699L170.543 38.492H162.44Z" fill="#C8090A"/>
<path d="M193.175 28.7888C193.175 27.3494 192.667 26.2487 191.651 25.4866C190.635 24.7077 188.806 23.8948 186.164 23.0481C183.523 22.1845 181.431 21.3378 179.89 20.508C175.691 18.2389 173.591 15.1823 173.591 11.3382C173.591 9.34002 174.15 7.56194 175.267 6.00401C176.402 4.42914 178.019 3.20143 180.119 2.32086C182.236 1.44029 184.606 1 187.231 1C189.873 1 192.227 1.48262 194.293 2.44786C196.359 3.39617 197.959 4.74242 199.094 6.48663C200.245 8.23084 200.821 10.2121 200.821 12.4305H193.201C193.201 10.7371 192.667 9.42469 191.6 8.49332C190.533 7.54501 189.035 7.07086 187.104 7.07086C185.242 7.07086 183.794 7.46881 182.761 8.26471C181.728 9.04367 181.211 10.0766 181.211 11.3636C181.211 12.566 181.812 13.5735 183.015 14.3864C184.234 15.1992 186.02 15.9612 188.374 16.6725C192.709 17.9764 195.868 19.5936 197.849 21.5241C199.83 23.4545 200.821 25.8592 200.821 28.738C200.821 31.9385 199.61 34.4532 197.188 36.2821C194.767 38.094 191.507 39 187.409 39C184.564 39 181.973 38.4835 179.636 37.4505C177.299 36.4006 175.513 34.9697 174.277 33.1578C173.057 31.3458 172.448 29.246 172.448 26.8583H180.094C180.094 30.9394 182.532 32.9799 187.409 32.9799C189.221 32.9799 190.635 32.6159 191.651 31.8877C192.667 31.1426 193.175 30.1096 193.175 28.7888Z" fill="#C8090A"/>
</svg>
