<svg width="304" height="45" viewBox="0 0 304 45" fill="none" xmlns="http://www.w3.org/2000/svg">
<path d="M0 44.3827V3.64198H18.0259C23.0157 3.64198 26.6958 4.60905 29.0659 6.54321C31.4361 8.47736 32.6212 11.214 32.6212 14.7531C32.6212 16.9342 31.9559 18.8683 30.6253 20.5556C29.2946 22.2428 27.3403 23.3128 24.7622 23.7654V23.8272C27.6314 24.2387 29.8352 25.3086 31.3738 27.037C32.9123 28.7654 33.6816 30.823 33.6816 33.2099C33.6816 36.7078 32.3925 39.4444 29.8144 41.4198C27.2779 43.3951 23.5563 44.3827 18.6496 44.3827H0ZM8.35802 20.7407H16.9032C21.4356 20.7407 23.7018 18.9918 23.7018 15.4938C23.7018 11.9959 21.4356 10.2469 16.9032 10.2469H8.35802V20.7407ZM8.35802 37.963H17.9011C20.1881 37.963 21.893 37.5103 23.0157 36.6049C24.18 35.6584 24.7622 34.321 24.7622 32.5926C24.7622 30.9054 24.18 29.6091 23.0157 28.7037C21.893 27.7572 20.1881 27.284 17.9011 27.284H8.35802V37.963Z" fill="black"/>
<path d="M55.2549 12.9012C58.3736 12.9012 61.1388 13.5391 63.5506 14.8148C65.9623 16.0905 67.8335 17.9218 69.1642 20.3086C70.5364 22.6955 71.2225 25.5761 71.2225 28.9506C71.2225 32.3251 70.5364 35.2058 69.1642 37.5926C67.8335 39.9794 65.9623 41.8107 63.5506 43.0864C61.1388 44.3621 58.3736 45 55.2549 45C52.0947 45 49.3087 44.3621 46.8969 43.0864C44.5267 41.8107 42.6555 39.9794 41.2833 37.5926C39.9527 35.2058 39.2874 32.3251 39.2874 28.9506C39.2874 25.5761 39.9527 22.6955 41.2833 20.3086C42.6555 17.9218 44.5267 16.0905 46.8969 14.8148C49.3087 13.5391 52.0947 12.9012 55.2549 12.9012ZM55.2549 19.1975C52.9263 19.1975 51.0967 20.0206 49.7661 21.6667C48.477 23.2716 47.8325 25.6996 47.8325 28.9506C47.8325 32.2016 48.477 34.6502 49.7661 36.2963C51.0967 37.9012 52.9263 38.7037 55.2549 38.7037C57.5419 38.7037 59.33 37.9012 60.619 36.2963C61.9496 34.6502 62.615 32.2016 62.615 28.9506C62.615 25.6996 61.9496 23.2716 60.619 21.6667C59.33 20.0206 57.5419 19.1975 55.2549 19.1975Z" fill="black"/>
<path d="M92.5936 12.9012C95.7123 12.9012 98.4775 13.5391 100.889 14.8148C103.301 16.0905 105.172 17.9218 106.503 20.3086C107.875 22.6955 108.561 25.5761 108.561 28.9506C108.561 32.3251 107.875 35.2058 106.503 37.5926C105.172 39.9794 103.301 41.8107 100.889 43.0864C98.4775 44.3621 95.7123 45 92.5936 45C89.4333 45 86.6473 44.3621 84.2356 43.0864C81.8654 41.8107 79.9942 39.9794 78.622 37.5926C77.2913 35.2058 76.626 32.3251 76.626 28.9506C76.626 25.5761 77.2913 22.6955 78.622 20.3086C79.9942 17.9218 81.8654 16.0905 84.2356 14.8148C86.6473 13.5391 89.4333 12.9012 92.5936 12.9012ZM92.5936 19.1975C90.265 19.1975 88.4354 20.0206 87.1047 21.6667C85.8157 23.2716 85.1712 25.6996 85.1712 28.9506C85.1712 32.2016 85.8157 34.6502 87.1047 36.2963C88.4354 37.9012 90.265 38.7037 92.5936 38.7037C94.8806 38.7037 96.6686 37.9012 97.9577 36.2963C99.2883 34.6502 99.9536 32.2016 99.9536 28.9506C99.9536 25.6996 99.2883 23.2716 97.9577 21.6667C96.6686 20.0206 94.8806 19.1975 92.5936 19.1975Z" fill="black"/>
<path d="M124.256 0V27.5926L137.729 13.5185H147.459L135.733 25.6173L148.208 44.3827H138.54L129.932 30.7407L124.256 36.7284V44.3827H115.711V0H124.256Z" fill="black"/>
<path d="M207.376 33.1482C206.129 37.1399 203.946 40.1235 200.827 42.0988C197.709 44.0329 194.07 45 189.912 45C185.837 45 182.302 44.1564 179.308 42.4691C176.356 40.7819 174.069 38.3745 172.447 35.2469C170.867 32.1193 170.077 28.3745 170.077 24.0123C170.077 19.6502 170.888 15.9054 172.51 12.7778C174.132 9.65021 176.419 7.2428 179.371 5.55556C182.323 3.86831 185.795 3.02469 189.787 3.02469C193.987 3.02469 197.584 3.90946 200.578 5.67901C203.613 7.40741 205.692 10.0412 206.815 13.5802L199.018 16.8519C198.312 14.3827 197.23 12.6337 195.775 11.6049C194.32 10.535 192.448 10 190.161 10C186.752 10 184.028 11.214 181.991 13.642C179.995 16.0288 178.997 19.4856 178.997 24.0123C178.997 28.4979 179.953 31.9547 181.866 34.3827C183.779 36.8107 186.544 38.0247 190.161 38.0247C192.407 38.0247 194.34 37.428 195.962 36.2346C197.625 35.0412 198.79 33.2305 199.455 30.8025L207.376 33.1482Z" fill="black"/>
<path d="M222.26 0V34.8765C222.26 36.3169 222.509 37.3251 223.008 37.9012C223.507 38.4774 224.339 38.7654 225.503 38.7654C226.21 38.7654 226.792 38.7243 227.25 38.642C227.707 38.5597 228.289 38.3951 228.996 38.1481L228.248 43.7037C227.541 44.1152 226.647 44.4239 225.566 44.6296C224.526 44.8765 223.486 45 222.447 45C219.411 45 217.187 44.2798 215.773 42.8395C214.401 41.358 213.715 39.0123 213.715 35.8025V0H222.26Z" fill="black"/>
<path d="M244.61 45C242.531 45 240.66 44.6296 238.997 43.8889C237.334 43.1481 236.003 41.9753 235.005 40.3704C234.049 38.7654 233.57 36.6461 233.57 34.0123V13.5185H242.115V31.9753C242.115 34.3621 242.614 36.0288 243.612 36.9753C244.61 37.8807 246.045 38.3333 247.916 38.3333C249.704 38.3333 251.284 37.6955 252.657 36.4198C254.07 35.1029 254.777 33.0041 254.777 30.1235V13.5185H263.322V44.3827H255.713L255.401 39.0123C254.361 41.0288 252.927 42.5309 251.097 43.5185C249.268 44.5062 247.105 45 244.61 45Z" fill="black"/>
<path d="M290.652 45C288.157 45 285.995 44.3621 284.165 43.0864C282.377 41.7696 281.047 40.0617 280.173 37.963L279.862 44.3827H272.314V0H280.86V18.7654C281.774 17.037 283.063 15.6379 284.727 14.5679C286.432 13.4568 288.49 12.9012 290.902 12.9012C293.397 12.9012 295.621 13.5391 297.576 14.8148C299.571 16.0905 301.131 17.9424 302.254 20.3704C303.418 22.7572 304 25.6379 304 29.0123C304 32.3868 303.418 35.2675 302.254 37.6543C301.131 40 299.551 41.8107 297.513 43.0864C295.517 44.3621 293.23 45 290.652 45ZM288.095 38.5185C290.423 38.5185 292.232 37.7161 293.521 36.1111C294.81 34.465 295.455 32.0782 295.455 28.9506C295.455 25.823 294.81 23.4568 293.521 21.8519C292.232 20.2058 290.444 19.3827 288.157 19.3827C285.953 19.3827 284.186 20.2675 282.855 22.037C281.525 23.7654 280.86 26.0905 280.86 29.0123C280.86 32.0165 281.525 34.3621 282.855 36.0494C284.186 37.6955 285.933 38.5185 288.095 38.5185Z" fill="black"/>
<path d="M99 34.5C99 36.9853 96.9853 39 94.5 39C92.0147 39 90 36.9853 90 34.5C90 32.0147 92.0147 30 94.5 30C96.9853 30 99 32.0147 99 34.5Z" fill="black"/>
<path d="M62 34C62 36.2091 60.2091 38 58 38C55.7909 38 54 36.2091 54 34C54 31.7909 55.7909 30 58 30C60.2091 30 62 31.7909 62 34Z" fill="black"/>
</svg>
