<?xml version="1.0" ?><svg viewBox="0 0 512 512" xmlns="http://www.w3.org/2000/svg"><title/><g id="Onigiri"><path d="M311.8843,152.2239a5.1048,5.1048,0,0,0-6.3925-3.3394,72.7223,72.7223,0,0,0-14.5106,6.4547c-28.5455,16.48-50.9576,51.645-64.7336,78.2407a5.1011,5.1011,0,0,0,9.0595,4.6916c18.5845-35.8867,40.1675-62.2036,60.7742-74.0969a62.4781,62.4781,0,0,1,12.4636-5.5582A5.1,5.1,0,0,0,311.8843,152.2239Z"/><path d="M205.5164,296.7048a5.094,5.094,0,0,0-6.375,3.3719c-8.168,26.5134-12.6678,51.2166-12.6678,69.56a5.1,5.1,0,0,0,10.2,0c0-17.352,4.3379-40.9893,12.2146-66.5566A5.0991,5.0991,0,0,0,205.5164,296.7048Z"/><path d="M355.16,156.38c-9.6247-7.0573-59.1529-42.5854-92.3951-51.5154a56.5835,56.5835,0,0,0-8.1306-1.7009c-12.88-1.6883-25.9732,1.2451-38.9224,8.7208-57.6863,33.3069-104.5051,153.4981-104.5051,214.2947,0,11.1786,1.6285,19.69,4.9805,26.0155.0322.0572.0647.117.1.1768a24.18,24.18,0,0,0,6.7833,8.031c16.931,15.92,60.2289,40.7228,81.3485,46.6371a26.2754,26.2754,0,0,0,5.03,1.1754c.0522.0074.107.0149.1594.0224a32.1468,32.1468,0,0,0,4.0913.254c19.9917-.0025,48.7464-16.6024,81.7-35.6278l1.37-.7919c22.1181-12.77,42.9752-24.8762,60.1628-38.5691a5.0009,5.0009,0,0,0,1.2014-.973c25.4307-20.5868,42.4536-44.8725,42.4536-80.6242C400.5864,213.4514,381.9171,174.2152,355.16,156.38Zm4.2658,161.681V213.1a5.1,5.1,0,0,0-7.65-4.4176L250,267.4421a5.0992,5.0992,0,0,0-2.55,4.4177V387.5579c-14.8172,7.1965-27.57,11.673-36.4222,10.5792-.05-.0075-.1-.015-.1519-.0224a17.5429,17.5429,0,0,1-3.4267-.8093c-19.9516-5.5956-62.0141-29.7334-77.5981-44.5279a5.7,5.7,0,0,0-.5354-.4458,13.9089,13.9089,0,0,1-4.0242-4.7489c-.0273-.0572-.0574-.1145-.0871-.1718-2.52-4.7439-3.7976-11.8859-3.7976-21.2317,0-57.121,45.4915-174.3338,99.4051-205.4593,10.957-6.33,21.8966-8.83,32.7565-7.406a45.4618,45.4618,0,0,1,6.46,1.3772c32.2909,8.6759,83.3879,45.7281,89.1081,49.9242q.0971.0747.2017.1419c23.7842,15.7383,41.0491,52.39,41.0491,87.1482C390.3865,280.1862,378.5176,300.5345,359.4253,318.0611Z"/><path d="M235.825,157.3563a5.0994,5.0994,0,0,0,7.2117-7.2117l-8.6535-8.6536a5.1,5.1,0,0,0-7.2118,7.2118Z"/><path d="M164.4,321.7491a5.0994,5.0994,0,0,0-7.2116,7.2118l8.6535,8.6535a5.0994,5.0994,0,1,0,7.2117-7.2117Z"/><path d="M160.5029,256.0369a5.1,5.1,0,0,0,3.6059-8.7059l-8.6536-8.6561a5.1,5.1,0,0,0-7.2118,7.2118l8.6536,8.656A5.0836,5.0836,0,0,0,160.5029,256.0369Z"/><path d="M201.4,221.33a5.1,5.1,0,0,0-7.2118,7.2118l8.6536,8.6535a5.0995,5.0995,0,1,0,7.2118-7.2117Z"/><path d="M314.9971,182.58a5.0994,5.0994,0,0,0-7.2117,7.2117l8.6536,8.6536a5.0994,5.0994,0,0,0,7.2116-7.2117Z"/></g></svg>