<?xml version="1.0" ?><svg viewBox="0 0 512 512" xmlns="http://www.w3.org/2000/svg"><title/><g id="Sushi"><path d="M262.1892,226.0151a5.0994,5.0994,0,1,0-7.2117,7.2117l10.073,10.073a5.0994,5.0994,0,0,0,7.2117-7.2117Z"/><path d="M313,255.35a5.1,5.1,0,1,0-7.2118,7.2118l10.073,10.073a5.1,5.1,0,0,0,7.2118-7.2118Z"/><path d="M110.4019,308.285a5.0994,5.0994,0,0,0-7.2117,7.2117l10.073,10.0705a5.0994,5.0994,0,1,0,7.2117-7.2117Z"/><path d="M161.2126,337.62a5.0994,5.0994,0,0,0-7.2116,7.2118l10.073,10.073a5.0994,5.0994,0,1,0,7.2116-7.2118Z"/><path d="M490.76,247.3016v-.0025c-13.6912-20.4423-52.4344-71.9627-116.3562-108.7759-81.59-46.9857-123.3289-23.971-125.0669-22.9724l-75.2824,43.467a14.4873,14.4873,0,0,0,10.3869,26.6928,83.37,83.37,0,0,1,19.5831-1.7257,55.8569,55.8569,0,0,0-4.2832,21.3413c0,1.2364.1095,2.4541.21,3.6734C133.2971,178.0887,99.1162,196.9149,97.55,197.8207l-75.2822,43.467a14.4873,14.4873,0,0,0,10.3867,26.6928,83.3047,83.3047,0,0,1,19.5832-1.727,55.7494,55.7494,0,0,0,23.67,69.7552l101.6289,58.6775a56.07,56.07,0,0,0,55.9009,0l9.5076-5.4892A31.3335,31.3335,0,0,0,283.77,397.62l50.7735-29.315a21.2585,21.2585,0,0,0,10.6008-18.36,36.4951,36.4951,0,0,0-6.1707-20.3751c-3.3669-5.0253-8.2639-11.9435-14.6589-20.0445l5.0093,2.8918a56.07,56.07,0,0,0,55.9006,0l9.5078-5.4891a31.3336,31.3336,0,0,0,40.825,8.4226L486.33,286.0347a21.2584,21.2584,0,0,0,10.601-18.36A36.5,36.5,0,0,0,490.76,247.3016Zm-30.0645-22.7657c4.6741,5.54,8.7643,10.699,12.2219,15.3H345.8213c-6.004-5.1355-12.4-10.2588-19.1836-15.3Zm-27.7189-29.3524H279.44a224.3582,224.3582,0,0,0-38.2127-15.3H415.76C421.89,184.99,427.63,190.11,432.9769,195.1835Zm-197.32-59.9549H345.7627c7.4048,3.365,15.2366,7.3465,23.5514,12.1349,1.7892,1.031,3.4889,2.1115,5.2381,3.1651H209.1572ZM83.87,217.4985H193.9343c7.4234,3.36,15.27,7.34,23.5926,12.1324,1.79,1.0319,3.4912,2.113,5.2419,3.1676H57.37Zm43.7783,59.9524a224.337,224.337,0,0,0-38.2163-15.3H263.97c6.1309,5.1069,11.8709,10.2261,17.2176,15.3Zm181.2593,29.3524c4.6729,5.5392,8.7632,10.699,12.2221,15.3H194.0315c-6.0039-5.1355-12.4-10.2592-19.1848-15.3Zm-80.57,79.0475a45.825,45.825,0,0,1-45.7007,0L81.0072,327.1734a45.4183,45.4183,0,0,1-17.8524-60.1345c18.4675,2.1914,43.2192,9.3577,74.3857,27.3531,47.5623,27.4588,80.8255,63.4381,99.1411,86.6408Zm106.4053-34.3951a10.9566,10.9566,0,0,1-5.2993,8.0135l-12.62,7.2865H238.2107c-4.0105-4.7921-8.5066-9.9236-13.522-15.3Zm45.3821-47.8748a45.8255,45.8255,0,0,1-45.701,0L304.12,286.0854c-19.8559-21.2531-46.9721-45.4066-81.5029-65.2948-4.0131-2.3106-7.9-4.4049-11.7191-6.3881a44.4667,44.4667,0,0,1-.9561-9.0763,45.6429,45.6429,0,0,1,5-20.5562c18.4689,2.1911,43.2206,9.357,74.3859,27.3521,47.556,27.4548,80.8231,63.4378,99.1412,86.6411ZM481.23,277.1994l-12.6255,7.2889H389.9993c-4.0093-4.7921-8.5054-9.9233-13.522-15.3H486.5281A10.9519,10.9519,0,0,1,481.23,277.1994Z"/></g></svg>