<svg width="1728" height="900" viewBox="0 0 1728 900" fill="none" xmlns="http://www.w3.org/2000/svg">
<path d="M501.893 662.013L500.954 659.591L281.012 92.3932L51.2414 92.3932L51.2414 113.986L83.0762 115.973L83.085 115.974L83.085 115.974C104.74 117.519 122.148 123.967 134.148 135.564C146.162 147.175 152.631 163.829 152.631 185.521L152.631 692.993C152.631 741.483 120.587 780.922 76.9244 783.004L501.893 662.013ZM501.893 662.013L502.821 659.587L719.693 92.3932L921.808 92.3932V113.988L890.995 115.973L890.99 115.974C868.828 117.519 851.163 123.964 839.034 135.56C826.887 147.173 820.418 163.829 820.418 185.521L820.418 712.433C820.418 734.123 826.886 751.028 838.894 762.894C850.89 774.748 868.298 781.457 889.964 783.003L889.973 783.004L921.808 784.991V806.584H606.325V784.991L638.16 783.004L638.167 783.003C660.329 781.458 677.997 775.013 690.127 763.285C702.274 751.542 708.739 734.63 708.739 712.433L708.739 211.099L706.811 210.727L472.534 795.329H439.066L184.307 161.616L182.379 161.989L182.379 692.993C182.379 742.527 215.467 780.927 258.093 783.004L258.101 783.005L307.324 785.012V806.584H41L41 784.998L76.9165 783.004L501.893 662.013ZM988.489 447.442C988.489 231.031 1136.6 75 1336.72 75C1535.81 75 1687 234.095 1687 452.558C1687 668.967 1537.87 825 1338.77 825C1138.65 825 988.489 665.907 988.489 447.442ZM1558.93 497.576C1558.93 389.488 1532.79 288.782 1488.9 215.064C1445.01 141.359 1383.29 94.4857 1312.14 94.4857C1253.87 94.4857 1205.19 125.415 1171.12 179.489C1137.06 233.537 1117.58 310.73 1117.58 403.448C1117.58 511.023 1143.47 611.473 1187.23 685.063C1230.99 758.642 1292.71 805.514 1364.37 805.514C1422.65 805.514 1471.33 774.326 1505.4 720.256C1539.45 666.208 1558.93 589.272 1558.93 497.576Z" stroke="#24211F" stroke-width="2"/>
</svg>
