<svg width="1728" height="900" viewBox="0 0 1728 900" fill="none" xmlns="http://www.w3.org/2000/svg">
<path d="M501.887 659.23L281.697 91.3932L50.2414 91.3932L50.2414 114.925L83.0138 116.971C126.028 120.041 151.631 142.55 151.631 185.521L151.631 692.993C151.631 741.08 119.883 779.959 76.869 782.005L40 784.052L40 807.584H308.324V784.052L258.142 782.005C216.152 779.959 183.379 742.103 183.379 692.993L183.379 161.989L438.39 796.329H473.211L707.739 211.099L707.739 712.433C707.739 756.427 682.135 778.936 638.097 782.005L605.325 784.052V807.584H922.808V784.052L890.036 782.005C847.022 778.936 821.418 755.404 821.418 712.433L821.418 185.521C821.418 142.55 847.022 120.041 891.06 116.971L922.808 114.925V91.3932L719.004 91.3932L501.887 659.23Z" fill="#24211F"/>
<path d="M1336.72 74C1135.99 74 987.489 230.539 987.489 447.442C987.489 666.392 1138.04 826 1338.77 826C1538.48 826 1688 669.461 1688 452.558C1688 233.608 1536.43 74 1336.72 74ZM1312.14 95.4857C1453.47 95.4857 1557.93 281.695 1557.93 497.576C1557.93 680.716 1480.1 804.514 1364.37 804.514C1222.02 804.514 1118.58 618.305 1118.58 403.448C1118.58 218.261 1196.41 95.4857 1312.14 95.4857Z" fill="#24211F"/>
</svg>
