<svg width="48" height="48" viewBox="0 0 48 48" fill="none" xmlns="http://www.w3.org/2000/svg">
<g clip-path="url(#clip0_713_9201)">
<path d="M2.04195 35.3314C1.94872 34.9921 2.01087 34.6683 2.22841 34.3599C2.4458 34.0514 2.74118 33.8664 3.1141 33.8047C8.42823 33.0645 11.1164 30.597 11.1785 26.4024L6.37716 26.4024C6.03539 26.4024 5.74009 26.279 5.49147 26.0323C5.24286 25.7855 5.11855 25.4925 5.11855 25.1533L5.11855 7.29539C5.11855 6.92528 5.24286 6.61663 5.49147 6.37011C5.74009 6.12322 6.03539 6 6.37716 6L21.4338 6C21.7757 6 22.0789 6.12344 22.3431 6.37011C22.6072 6.61678 22.7393 6.92528 22.7393 7.29539L22.7393 22.7474C22.7393 28.8543 21.2321 33.5118 18.2176 36.7193C15.2032 39.9269 10.6658 41.685 4.60601 41.9934C4.29524 42.0242 4.01555 41.9471 3.76694 41.7621C3.5181 41.577 3.36272 41.3303 3.30079 41.0218L2.04195 35.3314ZM25.3029 35.3314C25.2097 34.9921 25.2718 34.6683 25.4894 34.3599C25.738 34.0206 26.0332 33.8355 26.375 33.8047C31.6892 33.0645 34.3773 30.597 34.4395 26.4024L29.6381 26.4024C29.2963 26.4024 29.001 26.279 28.7524 26.0323C28.5038 25.7855 28.3795 25.4925 28.3795 25.1533L28.3795 7.29539C28.3795 6.92528 28.5038 6.61663 28.7524 6.37011C29.001 6.12322 29.2963 6 29.6381 6L44.6948 6C45.0366 6 45.3396 6.12345 45.6038 6.37011C45.8679 6.61686 46 6.92528 46 7.2954L46 22.7474C46 28.8543 44.4928 33.5118 41.4783 36.7193C38.4639 39.9269 33.9267 41.685 27.8667 41.9934C27.556 42.0242 27.2763 41.9471 27.0277 41.7621C26.779 41.577 26.6237 41.3303 26.5615 41.0218L25.3029 35.3314Z" stroke="#D0FECF" stroke-width="2" stroke-linejoin="round"/>
</g>
<defs>
<clipPath id="clip0_713_9201">
<rect width="48" height="48" fill="white"/>
</clipPath>
</defs>
</svg>
