<svg fill="none" height="100" viewBox="0 0 76 100" width="76" xmlns="http://www.w3.org/2000/svg"><path d="m69.0182 28.5104c-7.5742-18.69101-18.535-28.688011-31.129-28.50801124-12.59-.17968976-23.555 9.81640124-31.12896 28.50801124-10.32 25.488-8.78521 46.852 4.33586 60.16h.0039c7.1016 7.1406 16.723 11.207 26.793 11.328 10.07-.1211 19.691-4.1875 26.793-11.328 13.117-13.309 14.652-34.672 4.332-60.16zm-7.332 57.203c-6.3086 6.3398-14.848 9.957-23.793 10.078-8.9453-.1211-17.484-3.7383-23.797-10.078-15.21097-15.422-10.25796-38.766-3.4297-55.625 4.0273-9.9414 12.707-25.88701 26.941-25.88701h.5664c14.234 0 22.91 15.94901 26.941 25.88701 6.8281 16.859 11.785 40.203-3.4258 55.625z" fill="#1f2839"/></svg>